<?xml version="1.0" encoding="utf-8"?>
<!-- Generator: Adobe Illustrator 28.3.0, SVG Export Plug-In . SVG Version: 6.00 Build 0)  -->
<svg version="1.1" id="Layer_1" xmlns="http://www.w3.org/2000/svg" xmlns:xlink="http://www.w3.org/1999/xlink" x="0px" y="0px"
	 viewBox="0 0 800 800" style="enable-background:new 0 0 800 800;" xml:space="preserve">
<style type="text/css">
	.st0{fill:#FFFFFF;}
</style>
<g>
	<g>
		<g>
			<path class="st0" d="M397.7,193.4c-48.3,0-87.7,39.3-87.7,87.7s39.3,87.7,87.7,87.7s87.7-39.3,87.7-87.7S446.1,193.4,397.7,193.4
				z M397.7,327.5c-25.6,0-46.4-20.8-46.4-46.4s20.8-46.4,46.4-46.4s46.4,20.8,46.4,46.4S423.3,327.5,397.7,327.5z"/>
			<path class="st0" d="M661.1,493.7c-25-38.4-55.1-56-70.9-63.2c8.4-54,11.3-108,3-154.1c-29.9-167.3-174.9-267.8-181-272
				c-8.8-6-20.3-6-29.1,0c-6.2,4.2-151.1,104.7-181,272c-8.3,46.6-5.3,101.4,3.4,156.1c-16.5,8.2-43.7,26-66.6,61.1
				C95.8,559.7,88.6,653.8,117.4,773c2,8.3,7.9,15,15.9,18c3,1.1,6.1,1.7,9.2,1.7c5.2,0,10.3-1.5,14.6-4.6l125.7-86.7
				c3.3,8.4,5.5,13.6,6.1,14.9c4,9.5,13.4,15.7,23.7,15.7h59.3v41.9c0,14.2,11.5,25.8,25.8,25.8s25.8-11.5,25.8-25.8V732h59.3
				c10.3,0,19.7-6.2,23.7-15.7c0.6-1.5,3.2-7.6,7.1-17.4L642.9,788c4.4,3,9.5,4.6,14.6,4.6c3.1,0,6.2-0.6,9.2-1.7
				c7.9-3,13.9-9.8,15.9-18C711.4,653.9,704.2,559.9,661.1,493.7z M397.7,58.2c16.7,13.6,45.3,39.1,73.1,74.6H324.7
				C352.4,97.3,381,71.8,397.7,58.2z M159.6,723.9c-28.1-155.5,25.2-216.2,56.1-237.7c13.9,63.3,33.1,122.9,48.3,165.7L159.6,723.9z
				 M465.4,680.7h-41.9V476.4c0-14.2-11.5-25.8-25.8-25.8s-25.8,11.5-25.8,25.8v204.4H330c-23.1-58.5-100-267.1-77.1-395.1
				c7.5-41.9,23.8-79.4,43.2-111.6h203.1c19.4,32.2,35.7,69.6,43.2,111.6C565.4,413.5,488.5,622.2,465.4,680.7z M640.4,723.9
				l-108.1-74.5c15.3-43.2,34.3-102.7,48-165.8C610.2,502.5,669.8,561.5,640.4,723.9z"/>
		</g>
	</g>
</g>
</svg>
